<svg width="19" height="19" viewBox="0 0 19 19" fill="none" xmlns="http://www.w3.org/2000/svg">
<path d="M2.375 9.5C2.375 10.1531 2.90938 10.6875 3.5625 10.6875C4.21563 10.6875 4.75 10.1531 4.75 9.5C4.75 8.84687 4.21563 8.3125 3.5625 8.3125C2.90938 8.3125 2.375 8.84687 2.375 9.5ZM14.25 9.5C14.25 10.1531 14.7844 10.6875 15.4375 10.6875C16.0906 10.6875 16.625 10.1531 16.625 9.5C16.625 8.84687 16.0906 8.3125 15.4375 8.3125C14.7844 8.3125 14.25 8.84687 14.25 9.5ZM8.3125 9.5C8.3125 10.1531 8.84688 10.6875 9.5 10.6875C10.1531 10.6875 10.6875 10.1531 10.6875 9.5C10.6875 8.84687 10.1531 8.3125 9.5 8.3125C8.84688 8.3125 8.3125 8.84687 8.3125 9.5Z" fill="#05080E"/>
</svg>
